<svg t="1705973892931" class="icon" viewBox="0 0 1024 1024" version="1.1" xmlns="http://www.w3.org/2000/svg" p-id="20484" width="32" height="32"><path d="M512.02944 512m-512 0a512 512 0 1 0 1024 0 512 512 0 1 0-1024 0Z" fill="#32BFBF" p-id="20485"></path><path d="M544.370773 640c51.029333 0 83.370667 34.005333 83.370667 84.821333 0 25.429333-8.832 48.938667-26.282667 64.896l39.125334 25.557334-21.76 23.850666-48.768-32.128a101.973333 101.973333 0 0 1-28.117334 3.754667c-54.741333 0-83.370667-37.845333-83.370666-85.376 0-48.298667 31.616-85.376 85.802666-85.376z m-1.621333 29.184c-31.488 0-45.226667 23.168-45.226667 55.466667 0 32.426667 14.933333 56.874667 45.866667 56.874666 33.536 0 45.397333-26.709333 45.397333-56.277333 0-31.402667-13.525333-56.064-46.037333-56.064z m-195.712 85.077333c3.541333 15.872 14.848 22.869333 32.938667 22.869334 18.090667 0 25.813333-7.253333 25.813333-18.816 0-12.885333-7.552-18.474667-34.304-24.789334-42.624-10.112-53.162667-25.813333-53.162667-47.189333C318.322773 658.773333 338.802773 640 375.794773 640c41.557333 0 58.112 22.613333 60.373334 45.781333h-34.133334c-1.621333-9.770667-6.954667-20.352-27.093333-20.352-13.781333 0-22.058667 5.76-22.058667 16.981334 0 11.008 6.656 15.488 31.957334 21.418666 45.525333 10.88 55.509333 27.989333 55.509333 50.346667 0 28.885333-21.632 48.725333-63.018667 48.725333-39.722667 0-60.672-19.797333-64.426666-48.64h34.133333zM658.802773 640h33.066667v134.058667H768.02944l-3.797333 28.842666H658.802773V640z" fill="#FFFFFF" p-id="20486"></path><path d="M506.056107 389.717333c-10.368 11.093333-17.92 22.656-20.010667 37.248-1.408 10.069333-2.389333 20.224-4.181333 30.208-1.365333 7.381333-4.522667 8.448-9.813334 3.2a47.573333 47.573333 0 0 1-8.789333-12.586666c-13.653333-27.648-14.208-57.088-9.216-86.741334 1.92-11.52 6.656-22.613333 10.069333-33.877333 2.133333-7.04 2.816-13.653333-2.986666-19.754667-4.437333-4.693333-9.216-9.685333-11.946667-15.488-6.144-12.672-11.178667-25.898667-16.469333-38.954666-6.058667-15.018667-10.837333-30.72-18.261334-45.013334-5.973333-11.605333-15.274667-21.333333-22.528-32.298666A71.765333 71.765333 0 0 1 383.218773 158.08C380.658773 150.058667 388.89344 141.610667 397.554773 144.64c14.506667 5.12 29.525333 10.496 42.197334 19.029333 12.373333 8.405333 24.32 14.762667 39.338666 14.805334 6.656 0 13.781333 0.128 19.882667 2.474666 12.714667 4.906667 25.301333 10.581333 37.248 17.237334 36.608 20.48 66.56 48.853333 90.794667 83.328 9.685333 13.781333 18.517333 28.458667 25.685333 43.733333 15.786667 33.450667 30.08 67.584 45.312 101.290667a35.413333 35.413333 0 0 0 24.917333 20.522666c11.776 3.114667 23.893333 6.954667 34.304 13.226667 19.584 11.648 38.016 25.216 56.789334 38.229333 1.578667 1.066667 2.048 3.84 3.072 5.802667-1.962667 0.768-3.925333 2.261333-5.845334 2.176a148.309333 148.309333 0 0 0-64.426666 11.733333c-4.522667 1.92-6.912 4.096-3.669334 8.874667 5.333333 7.893333 9.557333 17.194667 16.469334 23.253333 10.794667 9.472 22.912 17.664 35.413333 24.661334 15.658667 8.789333 32.213333 15.786667 45.866667 27.904 3.541333 3.114667 7.424 5.76 11.136 8.618666l1.322666-1.109333c-1.536-2.432-2.816-5.12-4.693333-7.253333-5.973333-6.869333-11.648-14.208-18.432-20.224-11.306667-10.026667-23.338667-19.242667-35.157333-28.672-8.32-6.656-17.024-12.8-25.173334-19.626667-4.352-3.754667-2.133333-6.613333 2.645334-7.722667 5.802667-1.365333 11.648-2.602667 17.493333-3.754666 14.336-2.816 28.629333-5.461333 42.965333-8.32 5.930667-1.152 6.741333-3.413333 2.56-7.893334-7.808-8.32-15.274667-17.237333-24.064-24.32-15.488-12.373333-31.36-24.32-48.042666-34.858666-11.52-7.253333-24.832-11.52-37.077334-17.749334a21.248 21.248 0 0 1-9.386666-8.704c-15.146667-32.128-30.293333-64.298667-44.416-96.896a279.594667 279.594667 0 0 0-35.797334-59.818666C621.554773 244.906667 604.95744 226.389333 584.86144 211.669333c-15.786667-11.562667-31.274667-23.808-47.957333-33.834666-17.365333-10.453333-36.906667-14.72-57.173334-15.786667C473.50144 161.621333 466.120107 160.426667 461.59744 156.672 448.754773 146.133333 434.33344 138.965333 419.314773 132.778667 408.946773 128.512 398.066773 126.293333 387.442773 129.621333 372.12544 134.442667 365.426773 152.661333 372.808107 168.874667c3.669333 8.106667 8.149333 16.213333 13.994666 22.698666 16.725333 18.688 25.770667 40.917333 32.853334 64.725334 6.4 21.248 14.72 41.856 29.994666 58.666666 1.578667 1.706667 2.432 5.12 2.090667 7.509334-0.597333 4.138667-2.56 8.021333-3.669333 12.074666-4.992 18.474667-10.325333 36.949333-9.429334 56.405334 0.512 11.306667 0.768 22.826667 2.986667 33.877333 3.84 18.688 10.538667 36.266667 25.173333 49.493333 12.288 11.136 28.458667 6.229333 32-10.197333 1.365333-6.229333 1.92-12.629333 3.114667-18.901333 0.981333-5.376 2.346667-10.666667 3.84-17.237334 9.216 15.146667 16.810667 29.184 25.898667 42.154667 9.045333 12.928 21.034667 23.168 34.176 31.914667-24.746667-34.56-45.653333-71.04-59.818667-112.341334" fill="#FEFEFE" p-id="20487"></path><path d="M476.232107 241.792c9.002667-6.4 9.642667-14.293333 2.432-22.058667a19.712 19.712 0 0 0-23.509334-4.266666l21.077334 26.325333" fill="#026694" p-id="20488"></path><path d="M506.056107 389.717333c14.165333 41.301333 35.029333 77.824 59.818666 112.341334a126.122667 126.122667 0 0 1-34.218666-31.914667c-9.045333-12.970667-16.64-27.008-25.856-42.154667-1.493333 6.570667-2.858667 11.861333-3.84 17.237334-1.194667 6.272-1.749333 12.672-3.114667 18.901333-3.541333 16.426667-19.712 21.333333-32 10.24-14.634667-13.312-21.376-30.848-25.173333-49.536-2.218667-11.050667-2.474667-22.570667-2.986667-33.877333-0.896-19.456 4.394667-37.930667 9.386667-56.405334 1.152-4.053333 3.114667-7.936 3.712-12.074666a10.368 10.368 0 0 0-2.133334-7.509334c-15.232-16.810667-23.594667-37.418667-29.952-58.666666-7.082667-23.808-16.128-46.08-32.853333-64.725334a89.856 89.856 0 0 1-14.037333-22.698666c-7.381333-16.213333-0.682667-34.432 14.634666-39.253334 10.666667-3.328 21.504-1.152 31.829334 3.157334 15.061333 6.186667 29.44 13.354667 42.282666 23.893333 4.565333 3.754667 11.946667 4.992 18.133334 5.333333 20.266667 1.109333 39.808 5.376 57.173333 15.786667 16.64 10.069333 32.128 22.314667 47.914667 33.877333 20.181333 14.72 36.736 33.194667 52.053333 52.949334 14.208 18.474667 26.325333 38.144 35.712 59.818666 14.165333 32.597333 29.312 64.768 44.458667 96.853334 1.706667 3.669333 5.717333 6.912 9.386666 8.746666 12.202667 6.229333 25.514667 10.496 37.034667 17.749334 16.682667 10.538667 32.597333 22.528 48.042667 34.858666 8.832 7.082667 16.256 16 24.064 24.32 4.224 4.522667 3.413333 6.741333-2.56 7.893334-14.293333 2.858667-28.586667 5.546667-42.922667 8.32a525.653333 525.653333 0 0 0-17.493333 3.754666c-4.821333 1.109333-7.04 3.968-2.602667 7.68 8.106667 6.912 16.810667 13.013333 25.130667 19.626667 11.818667 9.472 23.850667 18.688 35.157333 28.714667 6.741333 5.973333 12.416 13.354667 18.432 20.224 1.877333 2.133333 3.157333 4.821333 4.693333 7.253333l-1.28 1.109333c-3.754667-2.858667-7.68-5.546667-11.178666-8.618666-13.653333-12.117333-30.250667-19.114667-45.866667-27.904a208.469333 208.469333 0 0 1-35.413333-24.661334c-6.912-6.058667-11.178667-15.36-16.512-23.253333-3.242667-4.778667-0.853333-6.954667 3.669333-8.874667a148.309333 148.309333 0 0 1 64.426667-11.733333c1.962667 0.085333 3.925333-1.408 5.845333-2.176-0.981333-1.962667-1.450667-4.693333-2.986667-5.802667-18.773333-13.013333-37.290667-26.581333-56.832-38.229333-10.410667-6.272-22.528-10.112-34.346666-13.226667a35.413333 35.413333 0 0 1-24.874667-20.522666c-15.232-33.706667-29.568-67.84-45.312-101.290667a297.770667 297.770667 0 0 0-25.685333-43.733333c-24.234667-34.474667-54.186667-62.890667-90.794667-83.328a290.773333 290.773333 0 0 0-37.290667-17.237334c-6.058667-2.346667-13.226667-2.474667-19.882666-2.474666-15.018667-0.042667-26.922667-6.4-39.338667-14.805334-12.629333-8.533333-27.648-13.909333-42.197333-19.029333-8.618667-2.986667-16.853333 5.418667-14.293334 13.44 1.962667 6.186667 5.12 12.202667 8.661334 17.578667 7.296 10.965333 16.597333 20.693333 22.570666 32.298666 7.381333 14.293333 12.202667 29.994667 18.261334 45.013334 5.290667 13.056 10.325333 26.282667 16.426666 38.954666 2.773333 5.802667 7.509333 10.752 11.989334 15.488 5.802667 6.058667 5.12 12.714667 2.986666 19.754667-3.413333 11.306667-8.149333 22.357333-10.112 33.877333-4.949333 29.653333-4.394667 59.093333 9.216 86.741334 2.261333 4.565333 5.290667 9.002667 8.832 12.586666 5.290667 5.248 8.448 4.181333 9.813334-3.2 1.792-9.984 2.773333-20.138667 4.181333-30.208 2.090667-14.592 9.6-26.112 19.968-37.248" fill="#FFFFFF" p-id="20489"></path><path d="M476.232107 241.792l-21.077334-26.282667a19.712 19.712 0 0 1 23.466667 4.224c7.253333 7.765333 6.613333 15.701333-2.389333 22.058667M263.282773 499.541333c0-23.808 0.426667-50.432 1.024-66.218666H263.282773c-6.826667 28.458667-21.290667 74.88-35.2 118.485333H201.416107c-10.581333-38.101333-25.6-91.008-31.914667-118.869333h-0.981333c1.237333 16.384 1.834667 45.056 1.834666 68.949333v49.92h-28.586666V412.458667h46.677333c11.306667 36.394667 23.978667 82.090667 28.330667 102.826666h0.213333c3.541333-18.304 19.456-67.114667 31.573333-102.826666h44.928v139.349333H263.282773v-52.266667zM346.824107 452.266667c11.946667 39.168 22.357333 74.154667 24.192 84.650666H371.22944c2.56-11.434667 9.301333-36.906667 23.125333-84.650666h31.872l-38.869333 116.864c-11.093333 32.682667-20.309333 42.410667-48.085333 42.410666-2.858667 0-9.472-0.213333-15.018667-0.853333v-25.258667c2.176 0.256 5.717333 0.426667 8.277333 0.426667 11.776 0 17.706667-3.968 22.058667-16.512L312.47744 452.266667h34.346667z" fill="#FFFFFF" p-id="20490"></path></svg>