<svg t="1705973941306" class="icon" viewBox="0 0 1024 1024" version="1.1" xmlns="http://www.w3.org/2000/svg" p-id="20804" width="32" height="32"><path d="M512 512m-499.2 0a499.2 499.2 0 1 0 998.4 0 499.2 499.2 0 1 0-998.4 0Z" fill="#1890FF" p-id="20805"></path><path d="M123.904 518.7328v106.0864h30.336v-92.3904l33.9968 77.312c10.4192 23.7312 44.0832 23.7312 54.528 0.0256l33.1008-75.136v90.1888l29.7728 0.5632v-106.0352c0-1.9712-0.4608-3.9168-1.408-5.6576-2.5856-4.7104-9.0112-13.3376-21.9392-14.1056-10.368-0.6144-20.1728 4.8128-25.8048 13.5424-9.4208 14.6688-26.624 44.8512-40.1152 85.4784-0.3072 0.9216-1.5872 0.9728-1.9456 0.0768-4.736-12.032-24.6784-61.3376-38.0416-84.4544-3.456-5.9648-9.344-10.1632-16.128-11.3408-9.6768-1.6896-23.808-2.0224-32.7936 6.8608-2.3808 2.3296-3.5584 5.632-3.5584 8.9856zM324.8128 539.2384h27.52V596.48c0 5.2992 4.2752 9.5744 9.5744 9.5744h57.2416v-66.816h30.208v100.0448c0 0.8704-0.128 1.7152-0.384 2.5344-1.4336 4.352-7.4752 17.3312-29.5936 20.096-0.2048-0.2048-94.5152 0-94.5152 0v-21.0944h84.0704c0.9216 0 1.8176-0.1792 2.6368-0.5376 3.0208-1.28 9.344-5.2736 7.6032-15.616l-66.4064 0.4096c-1.6384 0-3.2512-0.256-4.8128-0.768-5.0688-1.6896-16.1536-6.3232-21.8368-15.8464-0.8192-1.3824-1.2544-2.9696-1.2544-4.5824l-0.0512-64.64zM584.5504 590.464c0 9.5744-3.8912 18.2528-10.1632 24.5248a34.57536 34.57536 0 0 1-24.4992 10.1376h-84.8128c-0.5632 0-0.9984-0.4352-0.9984-0.9984v-18.2528c0-0.5632 0.4608-0.9984 0.9984-0.9984 0.9472 0 1.8688-0.0256 2.8672-0.0256h67.584a15.3984 15.3984 0 0 0 15.4368-15.0528c0.2048-8.6784-7.3984-15.7952-16.0768-15.7952h-36.096c-13.184 0-24.6528-7.3472-30.5152-18.2016a34.78016 34.78016 0 0 1-4.1728-16.4864c0-9.5744 3.8912-18.2272 10.1632-24.4992 6.2464-6.272 14.9248-10.1376 24.4992-10.1376h82.5088c1.1264 0 1.9968 1.024 1.7664 2.1504l-3.1488 16.3328c-0.2048 1.024-1.0752 1.7664-2.1248 1.7664h-70.6816c-4.2752 0-8.1408 1.7152-10.9312 4.5056a15.41376 15.41376 0 0 0-4.5312 10.5472c-0.2048 8.704 7.424 15.8464 16.128 15.8464h42.0864c13.184 0 24.6784 7.3472 30.5408 18.2016 2.688 4.864 4.1728 10.4704 4.1728 16.4352zM732.2112 639.4624l-17.8688-17.1264c7.9616-5.504 13.184-14.6944 13.184-25.1136v-62.0288c0-16.8704-13.6704-30.5408-30.5408-30.5408h-71.5008c-16.8704 0-30.5408 13.6704-30.5408 30.5408v62.0288c0 16.8704 13.6704 30.5408 30.5408 30.5408h63.6928l13.4144 12.8768c0.384 0.3584 0.8704 0.5632 1.3824 0.5632h27.5456c0.896 0 1.3312-1.1008 0.6912-1.7408z m-88.9344-33.8176c-9.1136 0-16.4864-7.3728-16.4864-16.4864v-47.488c0-9.1136 7.3728-16.4864 16.4864-16.4864h41.088c9.1136 0 16.4864 7.3728 16.4864 16.4864v47.488c0 5.5808-2.7904 10.5216-7.04 13.4912l-16.5888-15.8976a2.0224 2.0224 0 0 0-1.3824-0.5632h-27.5456a0.9984 0.9984 0 0 0-0.6912 1.7152l18.4832 17.7152h-22.8096zM740.2752 504.6528v99.7376s0 25.4976 41.088 23.4496c-0.256-0.256 67.4816-0.0256 76.5184 0 0.5632 0 0.9984-0.4352 0.9984-0.9984v-21.4528a0.9984 0.9984 0 0 0-0.9984-0.9984l-77.3888-0.4864a9.6256 9.6256 0 0 1-9.5744-9.6512l0.256-89.6h-30.8992zM897.3056 540.2624c1.4848 1.024 3.3792-0.5376 2.6368-2.1504-4.3776-9.3184-16.1792-28.16-43.392-40.7296-0.128-0.128-12.3392-4.352 4.608-8.3456 0.0768-0.0768 21.7088-3.3024 24.6016-3.5072-0.0768 0 13.6448-0.2816 3.9424-12.0576 0 0-34.5344-34.5344-53.1456-38.4768 0-0.2048-18.2016-3.3792-25.3696-29.7216 0-0.128-42.0352-128.0256-141.44-131.8144-0.3072 0-0.64-0.128-0.8448-0.3584-2.3552-2.432-19.2512-16.5376-32.128-18.0736-0.2048 0-38.1696-7.0144-22.1952 33.536 0.0512 0.128 0.1024 0.2304 0.2048 0.3328 1.7152 2.0736 19.712 22.4512 23.4496 40.576 0 0.2048 9.216 28.2624 18.9696 39.1936 0.2816 0.3328 0.384 0.768 0.256 1.1776-2.2272 6.8096-20.352 64.3328 8.2688 88.2688 0 0 20.5824 22.1696 28.7488-14.5664 0.1792-0.768 1.1776-0.9984 1.6384-0.3328 4.9408 7.1936 24.064 35.9936 41.3952 44.3904 1.2032 0.5888 2.4064-0.768 1.664-1.8688-9.1136-13.4144-42.7264-62.5408-45.3376-78.7456a1.27488 1.27488 0 0 0-2.0736-0.8192c-3.968 3.2768-12.8256 13.568-14.4384 35.6096 0 0-1.4336 13.7984-8.448 1.1008-0.0256-0.0512-0.0256-0.1024-0.0512-0.1536-0.4864-1.5104-11.1872-26.0096 0.4352-65.28 0-0.2048 4.352-13.6448-2.0736-20.6848 0.2048 0-16.3328-22.7584-17.9968-37.4272 0.2048 0-1.8432-18.7392-21.5808-36.0704l-0.1792-0.1792c-0.768-0.9728-13.9008-14.4896 4.48-11.9552 0.0768 0 0.1536 0.0256 0.2048 0.0512 1.3312 0.4352 15.2832 3.6096 31.0016 17.024 0.2304 0.2048 0.512 0.3072 0.7936 0.3072 6.5024-0.1536 81.7408-1.2032 131.1744 121.1136 0.0512 0.1536 0.1024 0.2816 0.1024 0.4352 0.128 2.1504 7.168 30.2848 33.9456 39.296 0.2816 0.2816 11.392 0.6144 35.3024 18.2016 0 0.5376 13.568 7.9616 1.0752 7.4496-0.0768 0-0.128 0-0.2048 0.0256-2.3552 0.3328-46.8992 2.048-29.5424 23.936-0.1024 0.1024 5.888 8.9856 23.1168 19.2 0.0512 0.0256 0.0768 0.0512 0.128 0.0512 0.9216 0.4096 12.672 4.1728 38.2976 22.0416z" fill="#FFFFFF" p-id="20806"></path><path d="M667.4432 305.5616c0.3584-0.9472 1.408-1.4592 2.4064-1.3824 3.9424 0.256 16.6912 1.8432 16.9728 12.0832 0-0.0512 0.64 9.0624-6.8608 8.704-1.0752-0.0512-1.92-0.896-2.0992-1.9456-0.4096-2.4576-2.4832-7.04-7.1168-11.4176-0.0256-0.0768-4.2496-3.4304-3.3024-6.0416z" fill="#FFFFFF" p-id="20807"></path></svg>