<svg t="1705975104527" class="icon" viewBox="0 0 1024 1024" version="1.1" xmlns="http://www.w3.org/2000/svg"
     p-id="20962" width="32" height="32">
    <path d="M918.4768 592.896c-4.9152-14.4384-17.7664-24.5248-34.4064-26.9312a81.1008 81.1008 0 0 0-27.4944 1.536c-18.5344 3.6864-32.256 5.12-42.2912 5.3248 37.888-61.952 68.6592-132.7104 86.3744-199.2704 28.672-107.6224 13.3632-156.672-4.5056-178.8416-47.4112-58.6752-116.5312-90.2144-199.936-91.1872a364.544 364.544 0 0 0-103.936 14.1312 398.6944 398.6944 0 0 0-60.7744-5.4272c-40.0896-0.6144-75.52 7.8848-105.8304 25.2928a494.9504 494.9504 0 0 0-74.752-18.176c-73.1136-11.6224-131.9936-2.56-175.104 26.9312-52.224 35.7376-76.3904 97.792-71.8848 184.576 1.4336 27.4944 17.3056 111.3088 42.2912 190.72 14.3872 45.6704 29.696 83.6096 45.568 112.7424 22.528 41.3184 46.592 65.6384 73.5744 74.3936 15.104 4.864 42.6496 8.2944 71.5776-15.0528 3.6352 4.3008 8.5504 8.5504 15.0528 12.544 8.192 5.0688 18.3296 9.1648 28.3648 11.6224 36.352 8.7552 70.2976 6.6048 99.328-5.7344l0.4096 13.8752 0.6656 19.4048c1.6896 41.472 4.608 73.728 13.2096 96.3584 0.512 1.2288 1.1264 3.072 1.792 5.12 4.3008 12.8 11.52 34.1504 29.7984 50.944 18.944 17.3056 41.9328 22.6304 62.9248 22.6304 10.5472 0 20.5824-1.3312 29.3888-3.1744 31.4368-6.5024 67.1232-16.4352 92.928-52.1216 24.4224-33.6896 36.3008-84.4288 38.4-164.352l0.8192-6.5024 0.512-4.2496 5.7344 0.512 1.536 0.1024c31.9488 1.3824 71.1168-5.1712 95.1296-16.0256 18.9952-8.5504 79.872-39.68 65.536-81.7664z"
          fill="#000000" p-id="20963"></path>
    <path d="M863.744 601.088c-95.1296 18.9952-101.6832-12.288-101.6832-12.288 100.5056-144.5376 142.4896-328.0384 106.24-372.9408-98.8672-122.5216-270.08-64.5632-272.896-63.0784l-0.9216 0.1536a349.6448 349.6448 0 0 0-63.488-6.4c-43.1104-0.6656-75.776 10.9568-100.5568 29.184 0 0-305.3568-122.0096-291.1744 153.3952 3.072 58.5728 86.6304 443.2896 186.3168 327.1168 36.4544-42.496 71.68-78.4384 71.68-78.4384 17.408 11.264 38.4 16.9984 60.3136 14.9504l1.7408-1.3824c-0.512 5.2736-0.3072 10.3936 0.6656 16.5376-25.7024 27.8016-18.1248 32.7168-69.4784 42.9568-51.968 10.3936-21.4528 28.8256-1.536 33.6896 24.1664 5.8368 80.0768 14.1312 117.8112-37.12l-1.4848 5.8368c10.0864 7.8336 17.152 50.8416 15.9232 89.856-1.1776 38.9632-1.9456 65.7408 5.9904 86.6816 7.936 20.8896 15.8208 67.9424 83.3024 53.9136 56.4224-11.6736 85.6064-42.0864 89.7024-92.672 2.8672-36.0448 9.4208-30.72 9.8304-62.976l5.2224-15.2064c6.0416-48.7936 0.9728-64.512 35.6864-57.2416l8.448 0.7168c25.6 1.1264 59.0336-3.9936 78.6944-12.8 42.2912-19.0464 67.3792-50.8416 25.7024-42.496z"
          fill="#336791" p-id="20964"></path>
    <path d="M448.2048 355.328c-8.5504-1.1264-16.3328 0-20.2752 2.8672a7.168 7.168 0 0 0-3.072 4.7616c-0.512 3.4304 1.9968 7.2192 3.5328 9.216a26.624 26.624 0 0 0 16.7936 10.1376 19.7632 19.7632 0 0 0 2.7136 0.2048c10.3936 0 19.8144-7.8336 20.6336-13.6192 1.024-7.2704-9.7792-12.0832-20.3264-13.5168z m284.16 0.256c-0.8704-5.632-11.264-7.2704-21.1968-5.9392-9.8816 1.3312-19.456 5.632-18.6368 11.3664 0.6144 4.4032 8.8576 11.9808 18.6368 11.9808a24.2176 24.2176 0 0 0 16.0768-7.3728c3.4304-3.5328 5.4272-7.4752 5.12-10.0352z"
          fill="#FFFFFF" p-id="20965"></path>
    <path d="M895.3344 598.9376c-3.6352-10.5984-15.36-14.0288-34.7136-10.1376-57.6512 11.52-78.2848 3.5328-85.0432-1.3312 44.8-66.1504 81.6128-146.0736 101.5296-220.672 9.3696-35.328 14.592-68.1984 15.0016-94.9248 0.512-29.3888-4.6592-50.944-15.36-64.1536-42.8544-53.0944-105.7792-81.6128-181.9648-82.432-52.3776-0.512-96.6656 12.4416-105.216 16.128a270.08 270.08 0 0 0-59.2384-7.3728c-39.3216-0.6144-73.2672 8.4992-101.4272 27.136a464.1792 464.1792 0 0 0-82.432-20.992c-66.816-10.4448-119.9104-2.56-157.7472 23.5008-45.2096 31.0272-66.048 86.528-62.0544 164.9152 1.3824 26.368 16.896 107.52 41.3696 185.2416 32.1536 102.2976 67.1744 160.1536 103.9872 172.0832a47.9232 47.9232 0 0 0 14.7968 2.3552c13.4144 0 29.9008-5.8368 47.0016-25.856 20.9408-24.2688 42.496-48.0256 64.8704-71.1168 14.4384 7.5264 30.3616 11.776 46.592 12.1856l0.1536 1.2288a359.424 359.424 0 0 0-8.192 9.8304c-11.264 13.8752-13.6704 16.7936-49.92 24.064-10.3424 2.048-37.7344 7.4752-38.144 26.112-0.4096 20.3776 32.4096 28.928 36.1472 29.7984 13.056 3.1744 25.6 4.7616 37.5808 4.7616 29.1328 0 54.784-9.3184 75.264-27.2384-0.6656 72.5504 2.4576 144.0256 11.4688 165.8368 7.3216 17.8176 25.2928 61.44 82.1248 61.44 8.2944 0 17.4592-1.024 27.5968-3.072 59.2384-12.288 84.992-37.7344 94.9248-93.696 5.3248-29.952 14.4896-101.376 18.7904-139.776 9.0624 2.7648 20.736 4.0448 33.3824 4.0448 26.3168 0 56.7296-5.4272 75.776-14.0288 21.4528-9.6256 60.1088-33.28 53.0944-53.8624zM754.176 339.968a225.9456 225.9456 0 0 1-3.4816 32.3584 289.7408 289.7408 0 0 0-4.2496 37.888c-0.4608 14.08 1.3824 28.7744 3.1232 42.9056 3.584 28.6208 7.168 58.0608-6.912 87.1424a111.616 111.616 0 0 1-6.2464-12.4416 241.408 241.408 0 0 0-10.752-19.8656c-20.48-35.6352-68.4544-118.9888-43.9296-153.0368 7.3216-10.1376 25.856-20.5312 72.448-14.9504z m-56.4736-191.6928c68.3008 1.4848 122.2656 26.2144 160.512 73.6256 29.3376 36.352-2.9696 201.6256-96.4608 344.2688l-2.816-3.4304-1.1776-1.4336c24.1664-38.7072 19.456-76.9536 15.2064-110.8992-1.6896-13.9264-3.328-27.0848-2.9184-39.424 0.4096-13.1072 2.2016-24.32 3.9424-35.1744a215.04 215.04 0 0 0 3.6864-43.5712 17.5616 17.5616 0 0 0 0.4096-6.144c-1.536-15.6672-19.968-62.464-57.5488-104.9088a258.4064 258.4064 0 0 0-91.4432-66.6624c17.6128-3.5328 41.6768-6.8096 68.608-6.2464z m-381.952 499.6096c-18.944 22.016-31.9488 17.7664-36.2496 16.384-27.9552-9.0112-60.3648-66.2528-88.9344-157.0304-24.7296-78.592-39.168-157.5424-40.3456-179.712-3.584-70.0416 13.9264-118.8864 52.0704-145.1008 62.1056-42.7008 164.1984-17.152 205.2096-4.1984l-1.792 1.6896C338.432 245.76 340.0192 358.4 340.1728 365.2608c0 2.6624 0.2048 6.4 0.512 11.5712 1.1776 18.944 3.328 54.2208-2.4064 94.1568a116.736 116.736 0 0 0 40.704 107.264 1697.28 1697.28 0 0 0-63.2832 69.5808z m71.8848-93.0816a94.4128 94.4128 0 0 1-26.0096-80.64 472.4224 472.4224 0 0 0 2.6112-98.6112l-0.4096-7.1168c9.8304-8.448 55.3984-32.1024 87.9104-24.8832 14.848 3.2768 23.8592 13.1072 27.648 29.9008 19.456 87.1936 2.56 123.5456-11.008 152.7808a277.76 277.76 0 0 0-7.68 17.5616l-1.7408 4.5568c-4.4544 11.52-8.5504 22.1696-11.1104 32.3584a85.1456 85.1456 0 0 1-60.2112-25.9072z m3.4304 117.6064a52.8896 52.8896 0 0 1-15.7696-6.5536c2.8672-1.28 7.936-3.072 16.7936-4.864 42.6496-8.4992 49.2544-14.4896 63.6416-32.256 3.328-4.0448 7.0656-8.6528 12.2368-14.2336 7.68-8.3968 11.264-6.9632 17.664-4.4032 5.12 2.048 10.24 8.3968 12.288 15.36 0.9728 3.2256 2.048 9.472-1.536 14.336-30.0544 40.7552-73.8816 40.2432-105.3184 32.6144zM614.4 873.8816c-52.224 10.8544-70.656-14.9504-82.8928-44.544-7.8336-19.0464-11.7248-104.96-8.96-199.936a11.0592 11.0592 0 0 0-0.512-3.584 46.7456 46.7456 0 0 0-27.392-36.864c-4.7616-1.9456-13.4144-5.4272-23.8592-2.816 2.2016-8.9088 6.0928-18.944 10.24-29.8496l1.792-4.608c1.9456-5.12 4.4544-10.496 7.0656-16.128 14.1824-30.5664 33.6384-72.3968 12.544-166.912-7.8848-35.4816-34.304-52.736-74.24-48.7424a175.1552 175.1552 0 0 0-63.3856 20.48c3.072-35.6352 14.592-102.3488 57.7536-144.5376 27.136-26.5216 63.3344-39.68 107.4176-38.912 86.8352 1.3312 142.5408 44.544 173.9776 80.5888 27.0848 31.0272 41.728 62.2592 47.616 79.1552-44.032-4.352-73.984 4.096-89.1392 25.088-33.024 45.7728 18.0224 134.5536 42.5984 177.2544 4.5056 7.8336 8.3968 14.592 9.6256 17.4592 7.9872 18.7904 18.3296 31.3344 25.856 40.448 2.3552 2.816 4.608 5.5808 6.2976 7.936-13.312 3.7376-37.2736 12.3392-35.1232 55.3984a3097.4464 3097.4464 0 0 1-20.6336 158.4128c-8.3456 47.1552-26.2656 64.768-76.6464 75.264z m217.9584-241.8176c-13.6704 6.144-36.4544 10.752-58.1632 11.776-23.9104 1.024-36.096-2.6112-38.9632-4.9152-1.3312-26.8288 8.96-29.5936 19.8656-32.5632 1.6896-0.512 3.3792-0.9216 4.9664-1.4848l3.328 2.3552c19.2512 12.288 53.5552 13.6192 101.9904 3.9424l0.512-0.1024a130.7648 130.7648 0 0 1-33.536 20.992z"
          fill="#FFFFFF" p-id="20966"></path>
</svg>